<svg xmlns="http://www.w3.org/2000/svg" version="1.1" xmlns:xlink="http://www.w3.org/1999/xlink" xmlns:svgjs="http://svgjs.dev/svgjs" width="2000" height="449" viewBox="0 0 2000 449"><g transform="matrix(1,0,0,1,-1.2121212121212466,1.1066000564316312)"><svg viewBox="0 0 396 89" data-background-color="#ffffff" preserveAspectRatio="xMidYMid meet" height="449" width="2000" xmlns="http://www.w3.org/2000/svg" xmlns:xlink="http://www.w3.org/1999/xlink"><g id="tight-bounds" transform="matrix(1,0,0,1,0.2400000000000091,-0.2193483408071586)"><svg viewBox="0 0 395.52 89.43869668161433" height="89.43869668161433" width="395.52"><g><svg viewBox="0 0 395.52000000000004 89.43869668161435" height="89.43869668161433" width="395.52"><g><svg viewBox="0 0 395.52000000000004 89.43869668161435" height="89.43869668161435" width="395.52000000000004"><g id="textblocktransform"><svg viewBox="0 0 395.52000000000004 89.43869668161435" height="89.43869668161435" width="395.52000000000004" id="textblock"><g><svg viewBox="0 0 395.52000000000004 89.43869668161435" height="89.43869668161435" width="395.52000000000004"><rect width="395.52000000000004" height="89.43869668161435" x="0" y="0" opacity="1" fill="#131313" data-fill-palette-color="tertiary"></rect><g transform="matrix(1,0,0,1,23.607599999999998,23.607599999999998)"><svg width="348.30480000000006" viewBox="5.03 -39.11 326.63000000000005 39.6" height="42.22349668161436" data-palette-color="#ffffff"><path d="M11.08 0L5.03 0 5.03-35.77 26.78-35.77 25.98-31.47 11.08-31.47 11.08-20.68 24.27-20.68 23.49-16.5 11.08-16.5 11.08 0ZM32.47 0L32.47-25.88 37.25-25.88 38.08-18.16Q38.43-18.8 38.79-19.47 39.16-20.14 39.52-20.76 39.89-21.39 40.21-21.9 40.52-22.41 40.74-22.75L40.74-22.75Q41.26-23.51 41.9-24.18 42.55-24.85 43.31-25.33 44.06-25.81 44.94-26.09 45.82-26.37 46.85-26.37L46.85-26.37Q47.56-26.37 48.26-26.2 48.97-26.03 49.46-25.66L49.46-25.66 48.83-20.21Q48.39-20.34 47.8-20.37 47.21-20.41 46.75-20.41L46.75-20.41Q45.19-20.41 43.97-19.96 42.75-19.51 41.76-18.71 40.77-17.92 39.95-16.85 39.13-15.77 38.38-14.53L38.38-14.53 38.38 0 32.47 0ZM54.98 0L54.98-25.88 60.91-25.88 60.91 0 54.98 0ZM57.93-30.98L57.93-30.98Q57.15-30.98 56.5-31.24 55.85-31.49 55.38-31.93 54.9-32.37 54.65-32.98 54.39-33.59 54.39-34.3L54.39-34.3Q54.39-35.03 54.67-35.66 54.95-36.28 55.45-36.76 55.95-37.23 56.62-37.5 57.29-37.77 58.08-37.77L58.08-37.77Q58.83-37.77 59.47-37.5 60.1-37.23 60.57-36.78 61.03-36.33 61.3-35.71 61.57-35.08 61.57-34.38L61.57-34.38Q61.57-33.64 61.29-33.02 61.01-32.4 60.51-31.95 60-31.49 59.35-31.24 58.69-30.98 57.93-30.98ZM90.28-5.32L90.28-2.37Q89.2-1.61 87.96-1.07 86.71-0.54 85.39-0.18 84.07 0.17 82.77 0.33 81.46 0.49 80.29 0.49L80.29 0.49Q77.58 0.49 75.25-0.34 72.92-1.17 71.2-2.78 69.47-4.39 68.5-6.75 67.52-9.11 67.52-12.16L67.52-12.16Q67.52-15.41 68.62-18.04 69.72-20.68 71.56-22.52 73.41-24.37 75.83-25.37 78.26-26.37 80.9-26.37L80.9-26.37Q83.1-26.37 84.99-25.65 86.88-24.93 88.26-23.51 89.64-22.09 90.42-19.97 91.2-17.85 91.2-15.04L91.2-15.04Q91.2-14.36 91.14-13.59 91.08-12.82 90.93-12.08L90.93-12.08 73.65-12.08Q73.65-10.11 74.35-8.59 75.04-7.08 76.31-6.07 77.58-5.05 79.36-4.53 81.14-4 83.29-4L83.29-4Q83.9-4 84.72-4.05 85.54-4.1 86.47-4.25 87.39-4.39 88.37-4.65 89.35-4.91 90.28-5.32L90.28-5.32ZM73.65-14.97L85.71-14.97Q85.71-16.75 85.26-18.09 84.81-19.43 84.03-20.34 83.24-21.24 82.21-21.69 81.17-22.14 79.97-22.14L79.97-22.14Q78.63-22.14 77.48-21.61 76.34-21.07 75.48-20.1 74.63-19.14 74.14-17.82 73.65-16.5 73.65-14.97L73.65-14.97ZM97.96 0L97.96-25.88 102.75-25.88 103.58-21.46Q104.43-22.24 105.51-23.11 106.58-23.97 107.85-24.69 109.12-25.42 110.52-25.89 111.93-26.37 113.44-26.37L113.44-26.37Q115.22-26.37 116.68-25.7 118.13-25.02 119.16-23.82 120.18-22.61 120.74-20.92 121.3-19.24 121.3-17.24L121.3-17.24 121.3 0 115.37 0 115.37-16.53Q115.37-17.85 115-18.85 114.64-19.85 113.99-20.51 113.34-21.17 112.45-21.51 111.56-21.85 110.54-21.85L110.54-21.85Q108.73-21.85 107.12-20.92 105.51-20 103.87-18.48L103.87-18.48 103.87 0 97.96 0ZM147.2-7.45L147.2-21.07Q145.62-21.75 144.36-21.95 143.1-22.14 142.3-22.14L142.3-22.14Q140.32-22.14 138.77-21.44 137.22-20.73 136.17-19.48 135.12-18.24 134.57-16.52 134.02-14.79 134.02-12.77L134.02-12.77Q134.02-10.94 134.48-9.35 134.95-7.76 135.8-6.57 136.66-5.37 137.87-4.69 139.07-4 140.56-4L140.56-4Q142.32-4 143.99-4.92 145.67-5.83 147.2-7.45L147.2-7.45ZM147.2-25.76L147.2-39.11 153.14-39.11 153.14 0 148.3 0 147.5-4.32Q146.64-3.54 145.63-2.7 144.62-1.86 143.42-1.15 142.22-0.44 140.84 0.02 139.47 0.49 137.9 0.49L137.9 0.49Q135.56 0.49 133.7-0.55 131.85-1.59 130.54-3.31 129.24-5.03 128.55-7.25 127.87-9.47 127.87-11.84L127.87-11.84Q127.87-14.97 129-17.63 130.14-20.29 132.12-22.23 134.09-24.17 136.76-25.27 139.42-26.37 142.47-26.37L142.47-26.37Q143.86-26.37 145.09-26.17 146.33-25.98 147.2-25.76L147.2-25.76ZM159.65-1.22L160.7-5.66 161.14-5.93Q162.09-5.42 163.13-5 164.17-4.59 165.19-4.31 166.22-4.03 167.2-3.88 168.17-3.74 169.03-3.74L169.03-3.74Q171.25-3.74 172.51-4.66 173.76-5.59 173.76-7.03L173.76-7.03Q173.76-8.01 173.19-8.64 172.62-9.28 171.68-9.73 170.74-10.18 169.54-10.52 168.34-10.86 167.09-11.24 165.83-11.62 164.63-12.11 163.44-12.6 162.5-13.35 161.56-14.11 160.98-15.2 160.41-16.28 160.41-17.87L160.41-17.87Q160.41-19.65 161.18-21.22 161.95-22.78 163.38-23.91 164.8-25.05 166.84-25.71 168.88-26.37 171.42-26.37L171.42-26.37Q172.06-26.37 172.9-26.32 173.74-26.27 174.66-26.16 175.57-26.05 176.5-25.88 177.43-25.71 178.23-25.44L178.23-25.44 177.16-21.07 176.62-20.75Q175.89-21.12 175.05-21.39 174.2-21.66 173.36-21.81 172.52-21.97 171.73-22.06 170.93-22.14 170.32-22.14L170.32-22.14Q168.17-22.14 166.96-21.29 165.76-20.43 165.76-18.99L165.76-18.99Q165.76-17.99 166.34-17.35 166.93-16.7 167.87-16.25 168.81-15.8 170.03-15.47 171.25-15.14 172.51-14.76 173.76-14.38 174.99-13.89 176.21-13.4 177.15-12.65 178.09-11.89 178.67-10.79 179.26-9.69 179.26-8.08L179.26-8.08Q179.26-6.27 178.48-4.7 177.69-3.13 176.25-1.98 174.81-0.83 172.79-0.17 170.76 0.49 168.3 0.49L168.3 0.49Q166.27 0.49 164 0.05 161.73-0.39 159.65-1.22L159.65-1.22ZM185.77 0L185.77-25.88 190.56-25.88 191.39-21.46Q192.24-22.24 193.31-23.11 194.37-23.97 195.58-24.69 196.78-25.42 198.09-25.89 199.4-26.37 200.71-26.37L200.71-26.37Q201.89-26.37 202.99-25.99 204.08-25.61 205.01-24.95 205.94-24.29 206.65-23.38 207.36-22.46 207.75-21.36L207.75-21.36Q208.7-22.17 209.75-23.06 210.8-23.95 211.99-24.68 213.19-25.42 214.52-25.89 215.85-26.37 217.37-26.37L217.37-26.37Q219.17-26.37 220.61-25.66 222.05-24.95 223.07-23.72 224.08-22.49 224.63-20.81 225.18-19.14 225.18-17.19L225.18-17.19 225.18 0 219.25 0 219.25-16.53Q219.25-18.99 218-20.42 216.75-21.85 214.66-21.85L214.66-21.85Q213.78-21.85 212.98-21.59 212.19-21.34 211.43-20.89 210.68-20.43 209.92-19.8 209.16-19.17 208.36-18.43L208.36-18.43Q208.41-18.14 208.41-17.85 208.41-17.55 208.41-17.19L208.41-17.19 208.41 0 202.5 0 202.5-16.53Q202.5-17.75 202.16-18.74 201.81-19.73 201.2-20.42 200.59-21.12 199.74-21.48 198.88-21.85 197.86-21.85L197.86-21.85Q197-21.85 196.22-21.59 195.44-21.34 194.7-20.89 193.95-20.43 193.21-19.82 192.46-19.21 191.68-18.48L191.68-18.48 191.68 0 185.77 0ZM254.64-5.32L254.64-2.37Q253.57-1.61 252.32-1.07 251.08-0.54 249.76-0.18 248.44 0.17 247.14 0.33 245.83 0.49 244.66 0.49L244.66 0.49Q241.95 0.49 239.62-0.34 237.28-1.17 235.56-2.78 233.84-4.39 232.87-6.75 231.89-9.11 231.89-12.16L231.89-12.16Q231.89-15.41 232.99-18.04 234.09-20.68 235.93-22.52 237.77-24.37 240.2-25.37 242.63-26.37 245.27-26.37L245.27-26.37Q247.47-26.37 249.36-25.65 251.25-24.93 252.63-23.51 254.01-22.09 254.79-19.97 255.57-17.85 255.57-15.04L255.57-15.04Q255.57-14.36 255.51-13.59 255.45-12.82 255.3-12.08L255.3-12.08 238.02-12.08Q238.02-10.11 238.71-8.59 239.41-7.08 240.68-6.07 241.95-5.05 243.73-4.53 245.51-4 247.66-4L247.66-4Q248.27-4 249.09-4.05 249.91-4.1 250.83-4.25 251.76-4.39 252.74-4.65 253.72-4.91 254.64-5.32L254.64-5.32ZM238.02-14.97L250.08-14.97Q250.08-16.75 249.63-18.09 249.17-19.43 248.39-20.34 247.61-21.24 246.57-21.69 245.54-22.14 244.34-22.14L244.34-22.14Q243-22.14 241.85-21.61 240.7-21.07 239.85-20.1 238.99-19.14 238.51-17.82 238.02-16.5 238.02-14.97L238.02-14.97ZM280.08-7.45L280.08-21.07Q278.49-21.75 277.24-21.95 275.98-22.14 275.17-22.14L275.17-22.14Q273.2-22.14 271.64-21.44 270.09-20.73 269.04-19.48 268-18.24 267.45-16.52 266.9-14.79 266.9-12.77L266.9-12.77Q266.9-10.94 267.36-9.35 267.82-7.76 268.68-6.57 269.53-5.37 270.74-4.69 271.95-4 273.44-4L273.44-4Q275.2-4 276.87-4.92 278.54-5.83 280.08-7.45L280.08-7.45ZM280.08-25.76L280.08-39.11 286.01-39.11 286.01 0 281.18 0 280.37-4.32Q279.52-3.54 278.51-2.7 277.49-1.86 276.3-1.15 275.1-0.44 273.72 0.02 272.34 0.49 270.78 0.49L270.78 0.49Q268.43 0.49 266.58-0.55 264.72-1.59 263.42-3.31 262.11-5.03 261.43-7.25 260.74-9.47 260.74-11.84L260.74-11.84Q260.74-14.97 261.88-17.63 263.01-20.29 264.99-22.23 266.97-24.17 269.63-25.27 272.29-26.37 275.34-26.37L275.34-26.37Q276.74-26.37 277.97-26.17 279.2-25.98 280.08-25.76L280.08-25.76ZM294.14 0L294.14-25.88 300.07-25.88 300.07 0 294.14 0ZM297.09-30.98L297.09-30.98Q296.31-30.98 295.67-31.24 295.02-31.49 294.54-31.93 294.07-32.37 293.81-32.98 293.55-33.59 293.55-34.3L293.55-34.3Q293.55-35.03 293.83-35.66 294.12-36.28 294.62-36.76 295.12-37.23 295.79-37.5 296.46-37.77 297.24-37.77L297.24-37.77Q298-37.77 298.63-37.5 299.27-37.23 299.73-36.78 300.19-36.33 300.46-35.71 300.73-35.08 300.73-34.38L300.73-34.38Q300.73-33.64 300.45-33.02 300.17-32.4 299.67-31.95 299.17-31.49 298.51-31.24 297.85-30.98 297.09-30.98ZM322.24-3.81L322.24-3.81Q321.6-3.27 320.71-2.53 319.82-1.78 318.73-1.11 317.65-0.44 316.37 0.02 315.08 0.49 313.67 0.49L313.67 0.49Q312.23 0.49 311-0.04 309.76-0.56 308.85-1.5 307.93-2.44 307.41-3.75 306.88-5.05 306.88-6.64L306.88-6.64Q306.88-8.3 307.55-9.89 308.22-11.47 309.8-12.72 311.37-13.96 313.96-14.73 316.55-15.5 320.36-15.5L320.36-15.5 322.14-15.5 322.14-17.5Q322.14-18.58 321.77-19.43 321.41-20.29 320.75-20.9 320.09-21.51 319.17-21.83 318.26-22.14 317.14-22.14L317.14-22.14Q316.26-22.14 315.26-21.94 314.25-21.73 313.28-21.36 312.3-21 311.37-20.5 310.45-20 309.71-19.41L309.71-19.41 309.27-19.65 308.15-23.75Q311.11-25.29 313.64-25.83 316.18-26.37 318.41-26.37L318.41-26.37Q320.7-26.37 322.49-25.9 324.29-25.44 325.53-24.48 326.78-23.51 327.43-22.03 328.07-20.56 328.07-18.53L328.07-18.53 328.07-6.57Q328.07-6.2 328.13-5.76 328.2-5.32 328.38-4.93 328.56-4.54 328.92-4.27 329.27-4 329.86-4L329.86-4Q330.2-4 330.69-4.1 331.17-4.2 331.66-4.42L331.66-4.42 331.66-1.49Q330.34-0.59 329.04-0.05 327.73 0.49 326.49 0.49L326.49 0.49Q325.51 0.49 324.8 0.12 324.09-0.24 323.61-0.84 323.12-1.44 322.79-2.21 322.46-2.98 322.24-3.81ZM322.14-6.96L322.14-12.62 320.6-12.62Q318.06-12.62 316.51-12.27 314.96-11.91 314.11-11.29 313.25-10.67 312.97-9.85 312.69-9.03 312.69-8.08L312.69-8.08Q312.69-7.08 312.99-6.32 313.28-5.57 313.78-5.05 314.28-4.54 314.96-4.27 315.65-4 316.43-4L316.43-4Q317.01-4 317.65-4.14 318.28-4.27 318.98-4.61 319.67-4.96 320.46-5.52 321.24-6.08 322.14-6.96L322.14-6.96Z" opacity="1" transform="matrix(1,0,0,1,0,0)" fill="#ffffff" class="wordmark-text-0" data-fill-palette-color="quaternary" id="text-0"></path></svg></g></svg></g></svg></g></svg></g><g></g></svg></g><defs></defs></svg><rect width="395.52" height="89.43869668161433" fill="none" stroke="none" visibility="hidden"></rect></g></svg></g></svg>